<?xml version="1.0"?>
<svg xmlns="http://www.w3.org/2000/svg" xmlns:xlink="http://www.w3.org/1999/xlink" xmlns:svgjs="http://svgjs.com/svgjs" version="1.1" width="512" height="512" x="0" y="0" viewBox="0 0 512 512" style="enable-background:new 0 0 512 512" xml:space="preserve" class=""><g><linearGradient xmlns="http://www.w3.org/2000/svg" id="a" gradientTransform="matrix(1 0 0 -1 0 -20854)" gradientUnits="userSpaceOnUse" x1="0" x2="512" y1="-21110" y2="-21110"><stop stop-opacity="1" stop-color="#db6400" offset="0"/><stop stop-opacity="1" stop-color="#16697a" offset="0.6254826254826255"/></linearGradient><path xmlns="http://www.w3.org/2000/svg" d="m512 256c0 141.386719-114.613281 256-256 256s-256-114.613281-256-256 114.613281-256 256-256 256 114.613281 256 256zm0 0" fill="url(#a)" data-original="url(#a)" style="" class=""/><path xmlns="http://www.w3.org/2000/svg" d="m420.367188 109.410156c-38.625-38.5625-89.289063-34.019531-135.523438 12.140625l-43.210938 43.140625c-7.03125 7.019532-13.089843 14.152344-18.183593 21.347656-25.457031.324219-51.6875 13.328126-76.441407 38.039063l-43.210937 43.140625c-24.941406 24.898438-38.125 51.667969-38.125 77.414062 0 21.261719 8.734375 40.761719 25.960937 57.960938 17.414063 17.382812 37.269532 26.007812 58.070313 26.007812 25.332031-.003906 52.066406-12.800781 77.460937-38.152343l43.210938-43.140625c7.027344-7.015625 13.085938-14.148438 18.179688-21.339844 25.453124-.324219 51.691406-13.335938 76.4375-38.042969l43.210937-43.140625c24.941406-24.902344 38.125-51.671875 38.125-77.414062 0-21.261719-8.730469-40.765625-25.960937-57.960938zm-33.355469 114.144532-43.214844 43.140624c-12.859375 12.839844-26.078125 21.675782-38.707031 26.066407 7.929687-27.238281 1.855468-53.890625-18.652344-76.542969l-22.242188 20.132812c29.375 32.445313 8.046876 66.703126-15.015624 89.726563l-43.210938 43.140625c-24.019531 23.980469-59.675781 45.550781-93.140625 12.144531-11.386719-11.367187-17.15625-23.726562-17.15625-36.730469 0-22.242187 15.941406-42.828124 29.320313-56.183593l43.210937-43.140625c12.859375-12.835938 26.082031-21.675782 38.710937-26.066406-7.933593 27.238281-1.859374 53.894531 18.648438 76.542968l22.238281-20.136718c-29.371093-32.433594-8.039062-66.695313 15.023438-89.722657l43.210937-43.144531c24.023438-23.976562 59.675782-45.546875 93.136719-12.140625 11.386719 11.367187 17.15625 23.722656 17.15625 36.726563 0 22.242187-15.941406 42.832031-29.316406 56.1875zm0 0" fill="#f8f1f1" data-original="#ffffff" style="" class=""/></g></svg>
